<?xml version="1.0" encoding="UTF-8" standalone="no"?>
<!--part of the matt icon theme by sixsixfive released under CC0 (https://creativecommons.org/publicdomain/zero/1.0/) on openclipart-->
<svg xmlns="http://www.w3.org/2000/svg" xmlns:xlink="http://www.w3.org/1999/xlink" viewBox="0 0 128 128">
 <defs id="0">
  <linearGradient id="2">
   <stop id="9" stop-color="#eaeaea"/>
   <stop id="A" offset="1" stop-color="#b3b3b3"/>
  </linearGradient>
  <filter x="-0.029" y="-0.148" width="1.057" height="1.295" color-interpolation-filters="sRGB" id="3">
   <feGaussianBlur stdDeviation="0.56344" id="B"/>
  </filter>
  <filter color-interpolation-filters="sRGB" id="4">
   <feGaussianBlur stdDeviation="0.73338" id="C"/>
  </filter>
  <radialGradient cx="29" cy="65.69" r="23.22" id="5" xlink:href="#2" gradientUnits="userSpaceOnUse" gradientTransform="matrix(0.80438211,-2.4077533e-8,2.0591029e-8,0.38088825,5.672918,40.667902)"/>
  <radialGradient cx="29" cy="65.69" r="23.22" id="6" xlink:href="#2" gradientUnits="userSpaceOnUse" gradientTransform="matrix(0.80438211,-2.4077533e-8,2.0591029e-8,0.38088825,77.907293,40.667902)"/>
  <radialGradient cx="65.16" cy="65.52" r="23.594" id="7" xlink:href="#2" gradientUnits="userSpaceOnUse" gradientTransform="matrix(1,0,0,0.19403974,0,52.80299)"/>
 </defs>
 <g id="1">
  <g transform="translate(-1.125042,-3.04425)" id="8">
   <path d="m 86.84375,57.4505 c -3.155971,0 -5.933921,1.677037 -7.5,4.1875 l -28.53125,0 C 49.235864,59.180053 46.491104,57.54425 43.375,57.54425 l -28.75,0 c -4.8581896,0 -8.84375,3.98556 -8.84375,8.84375 0,0.303637 8.728e-4,0.610191 0.03125,0.90625 -0.00937,0.165478 -0.03125,0.332315 -0.03125,0.5 0,4.85819 3.9855604,8.84375 8.84375,8.84375 l 28.75,0 c 3.253577,0 6.120479,-1.797402 7.65625,-4.4375 l 28.1875,0 c 1.536344,2.637864 4.404346,4.4375 7.65625,4.4375 l 28.75,0 c 4.85819,0 8.84375,-3.98556 8.84375,-8.84375 0,-0.198711 -0.0181,-0.398171 -0.0312,-0.59375 0.0283,-0.275666 0.0293,-0.561469 0.0312,-0.84375 -7e-5,-0.02083 2.2e-4,-0.04171 0,-0.0625 0,-4.85819 -3.98556,-8.84375 -8.84375,-8.84375 l -28.78125,0 z m -72.21875,6.21875 27.71875,0 c -0.500679,0.728951 -0.78125,1.596193 -0.78125,2.53125 0,0.236148 0.02627,0.459856 0.0625,0.6875 -0.03949,0.236872 -0.0625,0.471968 -0.0625,0.71875 0,1.087396 0.405225,2.078744 1.0625,2.875 l -28,0 c -2.082161,0 -3.744527,-1.434445 -4.0625,-3.40625 0.330028,-1.961595 1.990938,-3.40625 4.0625,-3.40625 z m 73.34375,0 27.65625,0 c 2.02799,0 3.65363,1.382643 4.03125,3.28125 -0.30079,1.987328 -1.9385,3.4375 -4.03125,3.4375 l -27.875,0 c 0.616367,-0.782723 1,-1.732215 1,-2.78125 0,-0.246782 -0.02301,-0.481878 -0.0625,-0.71875 0.03623,-0.227644 0.0625,-0.451352 0.0625,-0.6875 0,-0.935058 -0.280571,-1.802299 -0.78125,-2.53125 z" id="D" opacity="0.917" color="#000" stroke-width="4.734" filter="url(#4)"/>
   <path d="m 14.625,58.2435 c -4.8581896,0 -8.84375,3.98556 -8.84375,8.84375 0,4.85819 3.9855604,8.84375 8.84375,8.84375 l 28.75,0 c 4.85819,0 8.84375,-3.98556 8.84375,-8.84375 0,-4.85819 -3.98556,-8.84375 -8.84375,-8.84375 l -28.75,0 z m 0,4.71875 28.75,0 c 2.3177,0 4.125,1.807298 4.125,4.125 0,2.3177 -1.8073,4.09375 -4.125,4.09375 l -28.75,0 c -2.3177,0 -4.125,-1.77605 -4.125,-4.09375 0,-2.317702 1.8073,-4.125 4.125,-4.125 z" id="E" opacity="0.8" color="#000" stroke-width="4.734" fill="#555"/>
   <path d="m 86.859375,58.2435 c -4.85819,0 -8.84375,3.98556 -8.84375,8.84375 0,4.85819 3.98556,8.84375 8.84375,8.84375 l 28.750005,0 c 4.85819,0 8.84375,-3.98556 8.84375,-8.84375 0,-4.85819 -3.98556,-8.84375 -8.84375,-8.84375 l -28.750005,0 z m 0,4.71875 28.750005,0 c 2.3177,0 4.125,1.807298 4.125,4.125 0,2.3177 -1.8073,4.09375 -4.125,4.09375 l -28.750005,0 c -2.3177,0 -4.125,-1.77605 -4.125,-4.09375 0,-2.317702 1.8073,-4.125 4.125,-4.125 z" id="F" opacity="0.8" color="#000" stroke-width="4.734" fill="#555"/>
   <path d="m 46.15625,62.33725 c -2.493487,0 -4.59375,2.069015 -4.59375,4.5625 0,2.493485 2.100263,4.59375 4.59375,4.59375 l 38,0 c 2.493487,0 4.59375,-2.100263 4.59375,-4.59375 0,-2.493487 -2.100263,-4.5625 -4.59375,-4.5625 l -38,0 z" id="G" color="#000" stroke-width="4.734" fill="#888"/>
   <path d="m 14.625,56.84375 c -4.8581896,0 -8.84375,3.98556 -8.84375,8.84375 0,4.85819 3.9855604,8.84375 8.84375,8.84375 l 28.75,0 c 4.85819,0 8.84375,-3.98556 8.84375,-8.84375 0,-4.85819 -3.98556,-8.84375 -8.84375,-8.84375 l -28.75,0 z m 0,4.71875 28.75,0 c 2.3177,0 4.125,1.807298 4.125,4.125 0,2.3177 -1.8073,4.09375 -4.125,4.09375 l -28.75,0 c -2.3177,0 -4.125,-1.77605 -4.125,-4.09375 0,-2.317702 1.8073,-4.125 4.125,-4.125 z" id="H" color="#000" stroke-width="4.734" fill="#888"/>
   <path d="M 86.84375,56.75 C 81.98556,56.75 78,60.73556 78,65.59375 c 0,4.85819 3.98556,8.84375 8.84375,8.84375 l 28.78125,0 c 4.85819,0 8.84375,-3.98556 8.84375,-8.84375 0,-4.85819 -3.98556,-8.84375 -8.84375,-8.84375 l -28.78125,0 z m 0,4.71875 28.78125,0 c 2.31769,0 4.09375,1.8073 4.09375,4.125 0,2.3177 -1.77606,4.09375 -4.09375,4.09375 l -28.78125,0 c -2.3177,0 -4.09375,-1.77605 -4.09375,-4.09375 0,-2.3177 1.77605,-4.125 4.09375,-4.125 z" id="I" color="#000" stroke-width="4.734" fill="#888"/>
   <path d="m 14.625,56.84375 c -4.8581896,0 -8.84375,3.98556 -8.84375,8.84375 0,4.85819 3.9855604,8.84375 8.84375,8.84375 l 28.75,0 c 4.85819,0 8.84375,-3.98556 8.84375,-8.84375 0,-4.85819 -3.98556,-8.84375 -8.84375,-8.84375 l -28.75,0 z m 0,4.71875 28.75,0 c 2.3177,0 4.125,1.807298 4.125,4.125 0,2.3177 -1.8073,4.09375 -4.125,4.09375 l -28.75,0 c -2.3177,0 -4.125,-1.77605 -4.125,-4.09375 0,-2.317702 1.8073,-4.125 4.125,-4.125 z" id="J" opacity="0.8" color="#000" stroke-width="4.734" fill="url(#5)"/>
   <path d="m 86.859375,56.84375 c -4.85819,0 -8.84375,3.98556 -8.84375,8.84375 0,4.85819 3.98556,8.84375 8.84375,8.84375 l 28.750005,0 c 4.85819,0 8.84375,-3.98556 8.84375,-8.84375 0,-4.85819 -3.98556,-8.84375 -8.84375,-8.84375 l -28.750005,0 z m 0,4.71875 28.750005,0 c 2.3177,0 4.125,1.807298 4.125,4.125 0,2.3177 -1.8073,4.09375 -4.125,4.09375 l -28.750005,0 c -2.3177,0 -4.125,-1.77605 -4.125,-4.09375 0,-2.317702 1.8073,-4.125 4.125,-4.125 z" id="K" opacity="0.8" color="#000" stroke-width="4.734" fill="url(#6)"/>
   <path d="m 46.15625,60.9375 c -2.493487,0 -4.59375,2.069015 -4.59375,4.5625 0,2.493485 2.100263,4.59375 4.59375,4.59375 l 38,0 c 2.493487,0 4.59375,-2.100263 4.59375,-4.59375 0,-2.493487 -2.100263,-4.5625 -4.59375,-4.5625 l -38,0 z" id="L" color="#000" stroke-width="4.734" fill="#888"/>
   <path d="m 46.15625,60.9375 c -2.493487,0 -4.59375,2.069015 -4.59375,4.5625 0,2.493485 2.100263,4.59375 4.59375,4.59375 l 38,0 c 2.493487,0 4.59375,-2.100263 4.59375,-4.59375 0,-2.493487 -2.100263,-4.5625 -4.59375,-4.5625 l -38,0 z" transform="matrix(0.98497314,0,0,1,0.97909424,0)" id="M" color="#000" stroke-width="4.734" filter="url(#3)"/>
   <path d="m 46.15625,60.9375 c -2.493487,0 -4.59375,2.069015 -4.59375,4.5625 0,2.493485 2.100263,4.59375 4.59375,4.59375 l 38,0 c 2.493487,0 4.59375,-2.100263 4.59375,-4.59375 0,-2.493487 -2.100263,-4.5625 -4.59375,-4.5625 l -38,0 z" id="N" color="#000" stroke-width="4.734" fill="url(#7)"/>
  </g>
 </g>
</svg>
